<svg width="200px" height="1331" viewBox="0 0 1215 1331" fill="none" xmlns="http://www.w3.org/2000/svg">
<path d="M312.516 751.092C298.932 825.913 271.792 890.858 239.127 935.382C206.243 980.204 168.885 1002.98 134.827 997.145C100.769 991.312 73.6842 957.503 58.5679 904.462C43.5519 851.772 40.9207 781.729 54.5048 706.908C68.089 632.087 95.2284 567.142 127.894 522.618C160.778 477.796 198.136 455.023 232.194 460.855C266.252 466.688 293.337 500.497 308.453 553.538C323.469 606.228 326.1 676.271 312.516 751.092Z" fill="#B0B0B0" stroke="black" stroke-width="10"/>
<path d="M284.669 615.265C280.232 639.702 270.83 660.651 259.466 674.784C247.968 689.085 235.346 695.461 224.259 693.563C213.172 691.664 203.556 681.479 197.788 664.222C192.086 647.166 190.629 624.357 195.065 599.921C199.502 575.484 208.904 554.535 220.268 540.402C231.766 526.101 244.388 519.725 255.475 521.623C266.562 523.522 276.178 533.706 281.946 550.964C287.648 568.019 289.105 590.829 284.669 615.265Z" fill="#676767" fill-opacity="0.6" stroke="black" stroke-width="10"/>
<rect x="281" y="5" width="649" height="441" rx="64" fill="#D9D9D9" stroke="black" stroke-width="10"/>
<rect x="281" y="5" width="409" height="441" rx="51" fill="#EDEDED" stroke="black" stroke-width="10"/>
<rect x="338" y="96" width="297" height="262" fill="#1673FF"/>
<rect x="387" y="207" width="20" height="20" fill="#A6F4FF"/>
<rect x="387" y="227" width="20" height="20" fill="#A6F4FF"/>
<rect x="387" y="247" width="20" height="20" fill="#A6F4FF"/>
<rect x="367" y="247" width="20" height="20" fill="#A6F4FF"/>
<rect x="367" y="227" width="20" height="20" fill="#A6F4FF"/>
<rect x="367" y="207" width="20" height="20" fill="#A6F4FF"/>
<rect x="387" y="187" width="20" height="20" fill="#A6F4FF"/>
<rect x="367" y="189" width="20" height="20" fill="#A6F4FF"/>
<rect x="387" y="169" width="20" height="20" fill="#A6F4FF"/>
<rect x="367" y="169" width="20" height="20" fill="#A6F4FF"/>
<rect x="552.571" y="223" width="5.5" height="18.5714" transform="rotate(90 552.571 223)" fill="#A6F4FF"/>
<path d="M534.571 228V233.5H516V228H534.571Z" fill="#A6F4FF"/>
<rect x="516.571" y="233" width="5.5" height="18.5714" transform="rotate(90 516.571 233)" fill="#A6F4FF"/>
<rect x="516.571" y="228" width="5.5" height="18.5714" transform="rotate(90 516.571 228)" fill="#A6F4FF"/>
<rect x="534.571" y="223" width="5.5" height="18.5714" transform="rotate(90 534.571 223)" fill="#A6F4FF"/>
<rect x="552.571" y="218" width="5.5" height="18.5714" transform="rotate(90 552.571 218)" fill="#A6F4FF"/>
<rect x="570.571" y="228" width="5.5" height="18.5714" transform="rotate(90 570.571 228)" fill="#A6F4FF"/>
<rect x="570.571" y="223" width="5.5" height="18.5714" transform="rotate(90 570.571 223)" fill="#A6F4FF"/>
<rect x="588.571" y="233" width="5.5" height="18.5714" transform="rotate(90 588.571 233)" fill="#A6F4FF"/>
<rect x="588.571" y="228" width="5.5" height="18.5714" transform="rotate(90 588.571 228)" fill="#A6F4FF"/>
<rect x="337" y="347" width="10" height="10" fill="#D9D9D9"/>
<rect x="347" y="347" width="10" height="10" fill="#D9D9D9"/>
<rect x="337" y="337" width="10" height="10" fill="#D9D9D9"/>
<rect width="10" height="10" transform="matrix(-1 0 0 1 634 347)" fill="#D9D9D9"/>
<rect width="10" height="10" transform="matrix(-1 0 0 1 624 347)" fill="#D9D9D9"/>
<rect width="10" height="10" transform="matrix(-1 0 0 1 634 337)" fill="#D9D9D9"/>
<rect width="10" height="10" transform="matrix(0 1 1 0 624 95)" fill="#D9D9D9"/>
<rect width="10" height="10" transform="matrix(0 1 1 0 624 105)" fill="#D9D9D9"/>
<rect width="10" height="10" transform="matrix(0 1 1 0 614 95)" fill="#D9D9D9"/>
<rect width="10" height="10" transform="matrix(1 0 0 -1 337 105)" fill="#D9D9D9"/>
<rect width="10" height="10" transform="matrix(1 0 0 -1 347 105)" fill="#D9D9D9"/>
<rect width="10" height="10" transform="matrix(1 0 0 -1 337 115)" fill="#D9D9D9"/>
<path d="M852.5 234C852.5 256.844 846.921 277.502 837.927 292.432C828.927 307.371 816.563 316.5 803 316.5C789.437 316.5 777.073 307.371 768.073 292.432C759.079 277.502 753.5 256.844 753.5 234C753.5 211.156 759.079 190.498 768.073 175.568C777.073 160.629 789.437 151.5 803 151.5C816.563 151.5 828.927 160.629 837.927 175.568C846.921 190.498 852.5 211.156 852.5 234Z" fill="#C8C8C8" stroke="#1673FF"/>
<path d="M959.62 151.728C968.098 140.831 966.136 125.124 955.238 116.646C944.341 108.168 928.634 110.129 920.156 121.027L959.62 151.728ZM872.5 223L877.982 247.392L886.728 245.426L892.232 238.351L872.5 223ZM812.49 262.11L877.982 247.392L867.018 198.608L801.526 213.327L812.49 262.11ZM892.232 238.351L959.62 151.728L920.156 121.027L852.768 207.649L892.232 238.351Z" fill="white"/>
<path d="M939.089 134.908C939.255 134.687 939.209 134.373 938.988 134.208C938.767 134.043 938.454 134.088 938.288 134.309L939.089 134.908ZM874.5 220.5L874.636 220.981L874.799 220.935L874.901 220.799L874.5 220.5ZM806.824 240.09L874.636 220.981L874.364 220.019L806.553 239.127L806.824 240.09ZM874.901 220.799L939.089 134.908L938.288 134.309L874.099 220.201L874.901 220.799Z" fill="#1673FF"/>
<path d="M973 626.473C973 712.438 920.005 810.89 845.999 888.111C771.952 965.375 678.209 1020 598.139 1020C518.053 1020 423.236 965.359 348.116 888.086C273.031 810.849 219 712.404 219 626.473C219 583.736 232.346 552.084 254.588 528.416C276.945 504.625 308.645 488.526 345.924 477.704C420.625 456.019 515.882 456 598.139 456C680.402 456 774.576 456.02 848.197 477.699C884.93 488.515 916.092 504.605 938.051 528.384C959.903 552.047 973 583.708 973 626.473Z" fill="white" stroke="black" stroke-width="10"/>
<path d="M817.806 513.45C819.364 514.54 819.828 515.241 819.959 515.5C819.828 515.759 819.364 516.46 817.806 517.55C815.535 519.139 811.865 520.873 806.658 522.636C796.31 526.139 781.066 529.374 761.905 532.117C723.659 537.594 670.657 541 612 541C553.343 541 500.341 537.594 462.095 532.117C442.934 529.374 427.69 526.139 417.342 522.636C412.135 520.873 408.465 519.139 406.194 517.55C404.636 516.46 404.172 515.759 404.041 515.5C404.172 515.241 404.636 514.54 406.194 513.45C408.465 511.861 412.135 510.127 417.342 508.364C427.69 504.861 442.934 501.626 462.095 498.883C500.341 493.406 553.343 490 612 490C670.657 490 723.659 493.406 761.905 498.883C781.066 501.626 796.31 504.861 806.658 508.364C811.865 510.127 815.535 511.861 817.806 513.45Z" fill="#8C8C8C" stroke="black" stroke-width="10"/>
<path d="M792.781 489.163C792.782 489.163 792.774 489.173 792.752 489.192C792.769 489.173 792.78 489.163 792.781 489.163ZM790.519 489.737C790.776 489.828 791.008 489.916 791.218 490C791.008 490.084 790.776 490.172 790.519 490.263C788.332 491.037 784.973 491.825 780.472 492.596C771.509 494.131 758.46 495.525 742.245 496.699C709.839 499.046 665.027 500.5 615.5 500.5C565.973 500.5 521.161 499.046 488.755 496.699C472.54 495.525 459.491 494.131 450.528 492.596C446.027 491.825 442.668 491.037 440.481 490.263C440.224 490.172 439.992 490.084 439.782 490C439.992 489.916 440.224 489.828 440.481 489.737C442.668 488.963 446.027 488.175 450.528 487.404C459.491 485.869 472.54 484.475 488.755 483.301C521.161 480.954 565.973 479.5 615.5 479.5C665.027 479.5 709.839 480.954 742.245 483.301C758.46 484.475 771.509 485.869 780.472 487.404C784.973 488.175 788.332 488.963 790.519 489.737ZM438.219 489.163C438.22 489.163 438.231 489.173 438.248 489.192C438.226 489.173 438.218 489.163 438.219 489.163ZM438.219 490.837C438.218 490.837 438.226 490.827 438.248 490.808C438.231 490.827 438.22 490.837 438.219 490.837ZM792.752 490.808C792.774 490.827 792.782 490.837 792.781 490.837C792.78 490.837 792.769 490.827 792.752 490.808Z" stroke="#98C1FF" stroke-width="5"/>
<path d="M788.781 522.163C788.782 522.163 788.774 522.173 788.752 522.192C788.769 522.173 788.78 522.163 788.781 522.163ZM786.519 522.737C786.776 522.828 787.008 522.916 787.218 523C787.008 523.084 786.776 523.172 786.519 523.263C784.332 524.037 780.973 524.825 776.472 525.596C767.509 527.131 754.46 528.525 738.245 529.699C705.839 532.046 661.027 533.5 611.5 533.5C561.973 533.5 517.161 532.046 484.755 529.699C468.54 528.525 455.491 527.131 446.528 525.596C442.027 524.825 438.668 524.037 436.481 523.263C436.224 523.172 435.992 523.084 435.782 523C435.992 522.916 436.224 522.828 436.481 522.737C438.668 521.963 442.027 521.175 446.528 520.404C455.491 518.869 468.54 517.475 484.755 516.301C517.161 513.954 561.973 512.5 611.5 512.5C661.027 512.5 705.839 513.954 738.245 516.301C754.46 517.475 767.509 518.869 776.472 520.404C780.973 521.175 784.332 521.963 786.519 522.737ZM434.219 522.163C434.22 522.163 434.231 522.173 434.248 522.192C434.226 522.173 434.218 522.163 434.219 522.163ZM434.219 523.837C434.218 523.837 434.226 523.827 434.248 523.808C434.231 523.827 434.22 523.837 434.219 523.837ZM788.752 523.808C788.774 523.827 788.782 523.837 788.781 523.837C788.78 523.837 788.769 523.827 788.752 523.808Z" stroke="#98C1FF" stroke-width="5"/>
<path d="M792.781 463.163C792.782 463.163 792.774 463.173 792.752 463.192C792.769 463.173 792.78 463.163 792.781 463.163ZM790.519 463.737C790.776 463.828 791.008 463.916 791.218 464C791.008 464.084 790.776 464.172 790.519 464.263C788.332 465.037 784.973 465.825 780.472 466.596C771.509 468.131 758.46 469.525 742.245 470.699C709.839 473.046 665.027 474.5 615.5 474.5C565.973 474.5 521.161 473.046 488.755 470.699C472.54 469.525 459.491 468.131 450.528 466.596C446.027 465.825 442.668 465.037 440.481 464.263C440.224 464.172 439.992 464.084 439.782 464C439.992 463.916 440.224 463.828 440.481 463.737C442.668 462.963 446.027 462.175 450.528 461.404C459.491 459.869 472.54 458.475 488.755 457.301C521.161 454.954 565.973 453.5 615.5 453.5C665.027 453.5 709.839 454.954 742.245 457.301C758.46 458.475 771.509 459.869 780.472 461.404C784.973 462.175 788.332 462.963 790.519 463.737ZM438.219 463.163C438.22 463.163 438.231 463.173 438.248 463.192C438.226 463.173 438.218 463.163 438.219 463.163ZM438.219 464.837C438.218 464.837 438.226 464.827 438.248 464.808C438.231 464.827 438.22 464.837 438.219 464.837ZM792.752 464.808C792.774 464.827 792.782 464.837 792.781 464.837C792.78 464.837 792.769 464.827 792.752 464.808Z" stroke="#98C1FF" stroke-width="5"/>
<ellipse cx="884.5" cy="648.5" rx="40.5" ry="89.5" fill="#B3B3B3"/>
<path d="M1159.52 720.031C1173.11 797.105 1170.48 869.267 1155.45 923.558C1140.32 978.246 1113.21 1013.02 1079.22 1019.02C1045.23 1025.01 1007.86 1001.6 974.933 955.388C942.244 909.511 915.091 842.601 901.501 765.527C887.91 688.452 890.541 616.29 905.568 562C920.704 507.312 947.813 472.533 981.802 466.54C1015.79 460.547 1053.16 483.956 1086.09 530.169C1118.78 576.046 1145.93 642.957 1159.52 720.031Z" fill="white" stroke="black" stroke-width="10"/>
<ellipse cx="622.5" cy="1202" rx="408.5" ry="129" fill="#343434"/>
</svg>
